<?xml version="1.0" encoding="UTF-8"?>
<svg width="128" height="128" viewBox="0 0 64 64" fill="none" stroke="currentColor" stroke-width="3" stroke-linecap="round" stroke-linejoin="round" focusable="false" role="img" xmlns="http://www.w3.org/2000/svg" color="#bf5b05"><title>Bulk Export</title><rect x="4" y="4" width="56" height="56" rx="9" fill="currentColor" fill-opacity="0.1" stroke="none"></rect><svg xmlns="http://www.w3.org/2000/svg" width="31" height="31" viewBox="0 0 24 24" fill="none" stroke="currentColor" stroke-width="3" stroke-linecap="round" stroke-linejoin="round" class="lucide lucide-container" aria-hidden="true" x="16" y="20"><path d="M22 7.7c0-.6-.4-1.2-.8-1.5l-6.3-3.9a1.72 1.72 0 0 0-1.7 0l-10.3 6c-.5.2-.9.8-.9 1.4v6.6c0 .5.4 1.2.8 1.5l6.3 3.9a1.72 1.72 0 0 0 1.7 0l10.3-6c.5-.3.9-1 .9-1.5Z"></path><path d="M10 21.9V14L2.1 9.1"></path><path d="m10 14 11.9-6.9"></path><path d="M14 19.8v-8.1"></path><path d="M18 17.5V9.4"></path></svg><svg xmlns="http://www.w3.org/2000/svg" width="11" height="11" viewBox="0 0 24 24" fill="none" stroke="currentColor" stroke-width="3.1" stroke-linecap="round" stroke-linejoin="round" class="lucide lucide-arrow-up-right" aria-hidden="true" x="40" y="17"><path d="M7 7h10v10"></path><path d="M7 17 17 7"></path></svg></svg>
