<?xml version="1.0" encoding="UTF-8"?>
<svg width="128" height="128" viewBox="0 0 64 64" fill="none" stroke="currentColor" stroke-width="3" stroke-linecap="round" stroke-linejoin="round" focusable="false" role="img" xmlns="http://www.w3.org/2000/svg" color="#bf5b05"><title>Demolition</title><rect x="4" y="4" width="56" height="56" rx="9" fill="currentColor" fill-opacity="0.1" stroke="none"></rect><svg xmlns="http://www.w3.org/2000/svg" width="30" height="30" viewBox="0 0 24 24" fill="none" stroke="currentColor" stroke-width="3" stroke-linecap="round" stroke-linejoin="round" class="lucide lucide-hammer" aria-hidden="true" x="18" y="17"><path d="m15 12-9.373 9.373a1 1 0 0 1-3.001-3L12 9"></path><path d="m18 15 4-4"></path><path d="m21.5 11.5-1.914-1.914A2 2 0 0 1 19 8.172v-.344a2 2 0 0 0-.586-1.414l-1.657-1.657A6 6 0 0 0 12.516 3H9l1.243 1.243A6 6 0 0 1 12 8.485V10l2 2h1.172a2 2 0 0 1 1.414.586L18.5 14.5"></path></svg><path d="M19 47h19M43 47h3" stroke-width="2.6"></path></svg>
