<?xml version="1.0" encoding="UTF-8"?>
<svg width="128" height="128" viewBox="0 0 64 64" fill="none" stroke="currentColor" stroke-width="3" stroke-linecap="round" stroke-linejoin="round" focusable="false" role="img" xmlns="http://www.w3.org/2000/svg" color="#bf5b05"><title>Inquiry</title><rect x="4" y="4" width="56" height="56" rx="9" fill="currentColor" fill-opacity="0.1" stroke="none"></rect><svg xmlns="http://www.w3.org/2000/svg" width="32" height="32" viewBox="0 0 24 24" fill="none" stroke="currentColor" stroke-width="3.1" stroke-linecap="round" stroke-linejoin="round" class="lucide lucide-message-circle-question-mark" aria-hidden="true" x="16" y="16"><path d="M2.992 16.342a2 2 0 0 1 .094 1.167l-1.065 3.29a1 1 0 0 0 1.236 1.168l3.413-.998a2 2 0 0 1 1.099.092 10 10 0 1 0-4.777-4.719"></path><path d="M9.09 9a3 3 0 0 1 5.83 1c0 2-3 3-3 3"></path><path d="M12 17h.01"></path></svg></svg>
