<?xml version="1.0" encoding="UTF-8"?>
<svg width="128" height="128" viewBox="0 0 64 64" fill="none" stroke="currentColor" stroke-width="3" stroke-linecap="round" stroke-linejoin="round" focusable="false" role="img" xmlns="http://www.w3.org/2000/svg" color="#bf5b05"><title>Materials</title><rect x="4" y="4" width="56" height="56" rx="9" fill="currentColor" fill-opacity="0.1" stroke="none"></rect><svg xmlns="http://www.w3.org/2000/svg" width="29" height="29" viewBox="0 0 24 24" fill="none" stroke="currentColor" stroke-width="3" stroke-linecap="round" stroke-linejoin="round" class="lucide lucide-layers" aria-hidden="true" x="18" y="18"><path d="M12.83 2.18a2 2 0 0 0-1.66 0L2.6 6.08a1 1 0 0 0 0 1.83l8.58 3.91a2 2 0 0 0 1.66 0l8.58-3.9a1 1 0 0 0 0-1.83z"></path><path d="M2 12a1 1 0 0 0 .58.91l8.6 3.91a2 2 0 0 0 1.65 0l8.58-3.9A1 1 0 0 0 22 12"></path><path d="M2 17a1 1 0 0 0 .58.91l8.6 3.91a2 2 0 0 0 1.65 0l8.58-3.9A1 1 0 0 0 22 17"></path></svg></svg>
