<?xml version="1.0" encoding="UTF-8"?>
<svg xmlns="http://www.w3.org/2000/svg" width="1040" height="624" viewBox="0 0 1040 624">
<rect width="100%" height="100%" fill="#fbfaf7"/>
<text x="34" y="50" fill="#07385c" font-family="Arial, Helvetica, sans-serif" font-size="30" font-weight="800">Rising Sun Global Icon Pack</text>
<text x="34" y="79" fill="#66717f" font-family="Arial, Helvetica, sans-serif" font-size="14" font-weight="700">Soft rounded tile SVG icons with RSG orange monoline marks.</text>
<rect x="38" y="106" width="144" height="146" rx="12" fill="#ffffff" stroke="#e6e8eb"/>
<svg x="69" y="118" width="92" height="92" viewBox="0 0 64 64" fill="none" stroke="currentColor" stroke-width="3" stroke-linecap="round" stroke-linejoin="round" focusable="false" role="img" xmlns="http://www.w3.org/2000/svg" color="#bf5b05"><title>Scrap Import Export</title><rect x="4" y="4" width="56" height="56" rx="9" fill="currentColor" fill-opacity="0.1" stroke="none"></rect><svg xmlns="http://www.w3.org/2000/svg" width="30" height="30" viewBox="0 0 24 24" fill="none" stroke="currentColor" stroke-width="3" stroke-linecap="round" stroke-linejoin="round" class="lucide lucide-ship" aria-hidden="true" x="17" y="22"><path d="M12 10.189V14"></path><path d="M12 2v3"></path><path d="M19 13V7a2 2 0 0 0-2-2H7a2 2 0 0 0-2 2v6"></path><path d="M19.38 20A11.6 11.6 0 0 0 21 14l-8.188-3.639a2 2 0 0 0-1.624 0L3 14a11.6 11.6 0 0 0 2.81 7.76"></path><path d="M2 21c.6.5 1.2 1 2.5 1 2.5 0 2.5-2 5-2 1.3 0 1.9.5 2.5 1s1.2 1 2.5 1c2.5 0 2.5-2 5-2 1.3 0 1.9.5 2.5 1"></path></svg><path d="M19 45c2.5 1.4 5 1.4 7.5 0s5-1.4 7.5 0 5 1.4 7.5 0" stroke-width="2.6"></path><svg xmlns="http://www.w3.org/2000/svg" width="11" height="11" viewBox="0 0 24 24" fill="none" stroke="currentColor" stroke-width="3.1" stroke-linecap="round" stroke-linejoin="round" class="lucide lucide-arrow-left-right" aria-hidden="true" x="39" y="17"><path d="M8 3 4 7l4 4"></path><path d="M4 7h16"></path><path d="m16 21 4-4-4-4"></path><path d="M20 17H4"></path></svg></svg>
<text x="110" y="226" fill="#191919" font-family="Arial, Helvetica, sans-serif" font-size="12" font-weight="800" text-anchor="middle">Scrap Import Export</text>
<text x="110" y="245" fill="#bf5b05" font-family="Arial, Helvetica, sans-serif" font-size="9" font-weight="800" text-anchor="middle" letter-spacing="1.1">TRADE</text>
<rect x="200" y="106" width="144" height="146" rx="12" fill="#ffffff" stroke="#e6e8eb"/>
<svg x="231" y="118" width="92" height="92" viewBox="0 0 64 64" fill="none" stroke="currentColor" stroke-width="3" stroke-linecap="round" stroke-linejoin="round" focusable="false" role="img" xmlns="http://www.w3.org/2000/svg" color="#bf5b05"><title>Bulk Export</title><rect x="4" y="4" width="56" height="56" rx="9" fill="currentColor" fill-opacity="0.1" stroke="none"></rect><svg xmlns="http://www.w3.org/2000/svg" width="31" height="31" viewBox="0 0 24 24" fill="none" stroke="currentColor" stroke-width="3" stroke-linecap="round" stroke-linejoin="round" class="lucide lucide-container" aria-hidden="true" x="16" y="20"><path d="M22 7.7c0-.6-.4-1.2-.8-1.5l-6.3-3.9a1.72 1.72 0 0 0-1.7 0l-10.3 6c-.5.2-.9.8-.9 1.4v6.6c0 .5.4 1.2.8 1.5l6.3 3.9a1.72 1.72 0 0 0 1.7 0l10.3-6c.5-.3.9-1 .9-1.5Z"></path><path d="M10 21.9V14L2.1 9.1"></path><path d="m10 14 11.9-6.9"></path><path d="M14 19.8v-8.1"></path><path d="M18 17.5V9.4"></path></svg><svg xmlns="http://www.w3.org/2000/svg" width="11" height="11" viewBox="0 0 24 24" fill="none" stroke="currentColor" stroke-width="3.1" stroke-linecap="round" stroke-linejoin="round" class="lucide lucide-arrow-up-right" aria-hidden="true" x="40" y="17"><path d="M7 7h10v10"></path><path d="M7 17 17 7"></path></svg></svg>
<text x="272" y="226" fill="#191919" font-family="Arial, Helvetica, sans-serif" font-size="12" font-weight="800" text-anchor="middle">Bulk Export</text>
<text x="272" y="245" fill="#bf5b05" font-family="Arial, Helvetica, sans-serif" font-size="9" font-weight="800" text-anchor="middle" letter-spacing="1.1">TRADE</text>
<rect x="362" y="106" width="144" height="146" rx="12" fill="#ffffff" stroke="#e6e8eb"/>
<svg x="393" y="118" width="92" height="92" viewBox="0 0 64 64" fill="none" stroke="currentColor" stroke-width="3" stroke-linecap="round" stroke-linejoin="round" focusable="false" role="img" xmlns="http://www.w3.org/2000/svg" color="#bf5b05"><title>Global Trade</title><rect x="4" y="4" width="56" height="56" rx="9" fill="currentColor" fill-opacity="0.1" stroke="none"></rect><svg xmlns="http://www.w3.org/2000/svg" width="30" height="30" viewBox="0 0 24 24" fill="none" stroke="currentColor" stroke-width="3" stroke-linecap="round" stroke-linejoin="round" class="lucide lucide-earth" aria-hidden="true" x="17" y="17"><path d="M21.54 15H17a2 2 0 0 0-2 2v4.54"></path><path d="M7 3.34V5a3 3 0 0 0 3 3a2 2 0 0 1 2 2c0 1.1.9 2 2 2a2 2 0 0 0 2-2c0-1.1.9-2 2-2h3.17"></path><path d="M11 21.95V18a2 2 0 0 0-2-2a2 2 0 0 1-2-2v-1a2 2 0 0 0-2-2H2.05"></path><circle cx="12" cy="12" r="10"></circle></svg><svg xmlns="http://www.w3.org/2000/svg" width="12" height="12" viewBox="0 0 24 24" fill="none" stroke="currentColor" stroke-width="3.1" stroke-linecap="round" stroke-linejoin="round" class="lucide lucide-arrow-left-right" aria-hidden="true" x="37" y="39"><path d="M8 3 4 7l4 4"></path><path d="M4 7h16"></path><path d="m16 21 4-4-4-4"></path><path d="M20 17H4"></path></svg></svg>
<text x="434" y="226" fill="#191919" font-family="Arial, Helvetica, sans-serif" font-size="12" font-weight="800" text-anchor="middle">Global Trade</text>
<text x="434" y="245" fill="#bf5b05" font-family="Arial, Helvetica, sans-serif" font-size="9" font-weight="800" text-anchor="middle" letter-spacing="1.1">TRADE</text>
<rect x="524" y="106" width="144" height="146" rx="12" fill="#ffffff" stroke="#e6e8eb"/>
<svg x="555" y="118" width="92" height="92" viewBox="0 0 64 64" fill="none" stroke="currentColor" stroke-width="3" stroke-linecap="round" stroke-linejoin="round" focusable="false" role="img" xmlns="http://www.w3.org/2000/svg" color="#bf5b05"><title>Demolition</title><rect x="4" y="4" width="56" height="56" rx="9" fill="currentColor" fill-opacity="0.1" stroke="none"></rect><svg xmlns="http://www.w3.org/2000/svg" width="30" height="30" viewBox="0 0 24 24" fill="none" stroke="currentColor" stroke-width="3" stroke-linecap="round" stroke-linejoin="round" class="lucide lucide-hammer" aria-hidden="true" x="18" y="17"><path d="m15 12-9.373 9.373a1 1 0 0 1-3.001-3L12 9"></path><path d="m18 15 4-4"></path><path d="m21.5 11.5-1.914-1.914A2 2 0 0 1 19 8.172v-.344a2 2 0 0 0-.586-1.414l-1.657-1.657A6 6 0 0 0 12.516 3H9l1.243 1.243A6 6 0 0 1 12 8.485V10l2 2h1.172a2 2 0 0 1 1.414.586L18.5 14.5"></path></svg><path d="M19 47h19M43 47h3" stroke-width="2.6"></path></svg>
<text x="596" y="226" fill="#191919" font-family="Arial, Helvetica, sans-serif" font-size="12" font-weight="800" text-anchor="middle">Demolition</text>
<text x="596" y="245" fill="#bf5b05" font-family="Arial, Helvetica, sans-serif" font-size="9" font-weight="800" text-anchor="middle" letter-spacing="1.1">OPERATIONS</text>
<rect x="686" y="106" width="144" height="146" rx="12" fill="#ffffff" stroke="#e6e8eb"/>
<svg x="717" y="118" width="92" height="92" viewBox="0 0 64 64" fill="none" stroke="currentColor" stroke-width="3" stroke-linecap="round" stroke-linejoin="round" focusable="false" role="img" xmlns="http://www.w3.org/2000/svg" color="#bf5b05"><title>Industrial Recycling</title><rect x="4" y="4" width="56" height="56" rx="9" fill="currentColor" fill-opacity="0.1" stroke="none"></rect><svg xmlns="http://www.w3.org/2000/svg" width="30" height="30" viewBox="0 0 24 24" fill="none" stroke="currentColor" stroke-width="3" stroke-linecap="round" stroke-linejoin="round" class="lucide lucide-factory" aria-hidden="true" x="17" y="20"><path d="M12 16h.01"></path><path d="M16 16h.01"></path><path d="M3 19a2 2 0 0 0 2 2h14a2 2 0 0 0 2-2V8.5a.5.5 0 0 0-.769-.422l-4.462 2.844A.5.5 0 0 1 15 10.5v-2a.5.5 0 0 0-.769-.422L9.77 10.922A.5.5 0 0 1 9 10.5V5a2 2 0 0 0-2-2H5a2 2 0 0 0-2 2z"></path><path d="M8 16h.01"></path></svg><path d="M40 20l4 4 4-4" stroke-width="2.6"></path><path d="M48 20v8h-8" stroke-width="2.6"></path></svg>
<text x="758" y="226" fill="#191919" font-family="Arial, Helvetica, sans-serif" font-size="12" font-weight="800" text-anchor="middle">Industrial Recycling</text>
<text x="758" y="245" fill="#bf5b05" font-family="Arial, Helvetica, sans-serif" font-size="9" font-weight="800" text-anchor="middle" letter-spacing="1.1">OPERATIONS</text>
<rect x="848" y="106" width="144" height="146" rx="12" fill="#ffffff" stroke="#e6e8eb"/>
<svg x="879" y="118" width="92" height="92" viewBox="0 0 64 64" fill="none" stroke="currentColor" stroke-width="3" stroke-linecap="round" stroke-linejoin="round" focusable="false" role="img" xmlns="http://www.w3.org/2000/svg" color="#bf5b05"><title>Recycling</title><rect x="4" y="4" width="56" height="56" rx="9" fill="currentColor" fill-opacity="0.1" stroke="none"></rect><svg xmlns="http://www.w3.org/2000/svg" width="29" height="29" viewBox="0 0 24 24" fill="none" stroke="currentColor" stroke-width="3.2" stroke-linecap="round" stroke-linejoin="round" class="lucide lucide-recycle" aria-hidden="true" x="18" y="17"><path d="M7 19H4.815a1.83 1.83 0 0 1-1.57-.881 1.785 1.785 0 0 1-.004-1.784L7.196 9.5"></path><path d="M11 19h8.203a1.83 1.83 0 0 0 1.556-.89 1.784 1.784 0 0 0 0-1.775l-1.226-2.12"></path><path d="m14 16-3 3 3 3"></path><path d="M8.293 13.596 7.196 9.5 3.1 10.598"></path><path d="m9.344 5.811 1.093-1.892A1.83 1.83 0 0 1 11.985 3a1.784 1.784 0 0 1 1.546.888l3.943 6.843"></path><path d="m13.378 9.633 4.096 1.098 1.097-4.096"></path></svg></svg>
<text x="920" y="226" fill="#191919" font-family="Arial, Helvetica, sans-serif" font-size="12" font-weight="800" text-anchor="middle">Recycling</text>
<text x="920" y="245" fill="#bf5b05" font-family="Arial, Helvetica, sans-serif" font-size="9" font-weight="800" text-anchor="middle" letter-spacing="1.1">OPERATIONS</text>
<rect x="38" y="268" width="144" height="146" rx="12" fill="#ffffff" stroke="#e6e8eb"/>
<svg x="69" y="280" width="92" height="92" viewBox="0 0 64 64" fill="none" stroke="currentColor" stroke-width="3" stroke-linecap="round" stroke-linejoin="round" focusable="false" role="img" xmlns="http://www.w3.org/2000/svg" color="#bf5b05"><title>Scrap Metal</title><rect x="4" y="4" width="56" height="56" rx="9" fill="currentColor" fill-opacity="0.1" stroke="none"></rect><path d="M17 39h30"></path><path d="M21 39l5-17h14l-5 17"></path><path d="M33 39l5-17h9l-5 17"></path><path d="M24 31h21" stroke-width="2.5"></path></svg>
<text x="110" y="388" fill="#191919" font-family="Arial, Helvetica, sans-serif" font-size="12" font-weight="800" text-anchor="middle">Scrap Metal</text>
<text x="110" y="407" fill="#bf5b05" font-family="Arial, Helvetica, sans-serif" font-size="9" font-weight="800" text-anchor="middle" letter-spacing="1.1">OPERATIONS</text>
<rect x="200" y="268" width="144" height="146" rx="12" fill="#ffffff" stroke="#e6e8eb"/>
<svg x="231" y="280" width="92" height="92" viewBox="0 0 64 64" fill="none" stroke="currentColor" stroke-width="3" stroke-linecap="round" stroke-linejoin="round" focusable="false" role="img" xmlns="http://www.w3.org/2000/svg" color="#bf5b05"><title>Metal Recovery</title><rect x="4" y="4" width="56" height="56" rx="9" fill="currentColor" fill-opacity="0.1" stroke="none"></rect><svg xmlns="http://www.w3.org/2000/svg" width="30" height="30" viewBox="0 0 24 24" fill="none" stroke="currentColor" stroke-width="3" stroke-linecap="round" stroke-linejoin="round" class="lucide lucide-magnet" aria-hidden="true" x="18" y="16"><path d="m12 15 4 4"></path><path d="M2.352 10.648a1.205 1.205 0 0 0 0 1.704l2.296 2.296a1.205 1.205 0 0 0 1.704 0l6.029-6.029a1 1 0 1 1 3 3l-6.029 6.029a1.205 1.205 0 0 0 0 1.704l2.296 2.296a1.205 1.205 0 0 0 1.704 0l6.365-6.367A1 1 0 0 0 8.716 4.282z"></path><path d="m5 8 4 4"></path></svg><path d="M22 47h8M38 47h8" stroke-width="2.6"></path></svg>
<text x="272" y="388" fill="#191919" font-family="Arial, Helvetica, sans-serif" font-size="12" font-weight="800" text-anchor="middle">Metal Recovery</text>
<text x="272" y="407" fill="#bf5b05" font-family="Arial, Helvetica, sans-serif" font-size="9" font-weight="800" text-anchor="middle" letter-spacing="1.1">OPERATIONS</text>
<rect x="362" y="268" width="144" height="146" rx="12" fill="#ffffff" stroke="#e6e8eb"/>
<svg x="393" y="280" width="92" height="92" viewBox="0 0 64 64" fill="none" stroke="currentColor" stroke-width="3" stroke-linecap="round" stroke-linejoin="round" focusable="false" role="img" xmlns="http://www.w3.org/2000/svg" color="#bf5b05"><title>Materials</title><rect x="4" y="4" width="56" height="56" rx="9" fill="currentColor" fill-opacity="0.1" stroke="none"></rect><svg xmlns="http://www.w3.org/2000/svg" width="29" height="29" viewBox="0 0 24 24" fill="none" stroke="currentColor" stroke-width="3" stroke-linecap="round" stroke-linejoin="round" class="lucide lucide-layers" aria-hidden="true" x="18" y="18"><path d="M12.83 2.18a2 2 0 0 0-1.66 0L2.6 6.08a1 1 0 0 0 0 1.83l8.58 3.91a2 2 0 0 0 1.66 0l8.58-3.9a1 1 0 0 0 0-1.83z"></path><path d="M2 12a1 1 0 0 0 .58.91l8.6 3.91a2 2 0 0 0 1.65 0l8.58-3.9A1 1 0 0 0 22 12"></path><path d="M2 17a1 1 0 0 0 .58.91l8.6 3.91a2 2 0 0 0 1.65 0l8.58-3.9A1 1 0 0 0 22 17"></path></svg></svg>
<text x="434" y="388" fill="#191919" font-family="Arial, Helvetica, sans-serif" font-size="12" font-weight="800" text-anchor="middle">Materials</text>
<text x="434" y="407" fill="#bf5b05" font-family="Arial, Helvetica, sans-serif" font-size="9" font-weight="800" text-anchor="middle" letter-spacing="1.1">CONTENT</text>
<rect x="524" y="268" width="144" height="146" rx="12" fill="#ffffff" stroke="#e6e8eb"/>
<svg x="555" y="280" width="92" height="92" viewBox="0 0 64 64" fill="none" stroke="currentColor" stroke-width="3" stroke-linecap="round" stroke-linejoin="round" focusable="false" role="img" xmlns="http://www.w3.org/2000/svg" color="#bf5b05"><title>Services</title><rect x="4" y="4" width="56" height="56" rx="9" fill="currentColor" fill-opacity="0.1" stroke="none"></rect><svg xmlns="http://www.w3.org/2000/svg" width="29" height="29" viewBox="0 0 24 24" fill="none" stroke="currentColor" stroke-width="3" stroke-linecap="round" stroke-linejoin="round" class="lucide lucide-settings2 lucide-settings-2" aria-hidden="true" x="18" y="17"><path d="M14 17H5"></path><path d="M19 7h-9"></path><circle cx="17" cy="17" r="3"></circle><circle cx="7" cy="7" r="3"></circle></svg><path d="M20 47h24" stroke-width="2.6"></path></svg>
<text x="596" y="388" fill="#191919" font-family="Arial, Helvetica, sans-serif" font-size="12" font-weight="800" text-anchor="middle">Services</text>
<text x="596" y="407" fill="#bf5b05" font-family="Arial, Helvetica, sans-serif" font-size="9" font-weight="800" text-anchor="middle" letter-spacing="1.1">CONTENT</text>
<rect x="686" y="268" width="144" height="146" rx="12" fill="#ffffff" stroke="#e6e8eb"/>
<svg x="717" y="280" width="92" height="92" viewBox="0 0 64 64" fill="none" stroke="currentColor" stroke-width="3" stroke-linecap="round" stroke-linejoin="round" focusable="false" role="img" xmlns="http://www.w3.org/2000/svg" color="#bf5b05"><title>Inquiry</title><rect x="4" y="4" width="56" height="56" rx="9" fill="currentColor" fill-opacity="0.1" stroke="none"></rect><svg xmlns="http://www.w3.org/2000/svg" width="32" height="32" viewBox="0 0 24 24" fill="none" stroke="currentColor" stroke-width="3.1" stroke-linecap="round" stroke-linejoin="round" class="lucide lucide-message-circle-question-mark" aria-hidden="true" x="16" y="16"><path d="M2.992 16.342a2 2 0 0 1 .094 1.167l-1.065 3.29a1 1 0 0 0 1.236 1.168l3.413-.998a2 2 0 0 1 1.099.092 10 10 0 1 0-4.777-4.719"></path><path d="M9.09 9a3 3 0 0 1 5.83 1c0 2-3 3-3 3"></path><path d="M12 17h.01"></path></svg></svg>
<text x="758" y="388" fill="#191919" font-family="Arial, Helvetica, sans-serif" font-size="12" font-weight="800" text-anchor="middle">Inquiry</text>
<text x="758" y="407" fill="#bf5b05" font-family="Arial, Helvetica, sans-serif" font-size="9" font-weight="800" text-anchor="middle" letter-spacing="1.1">CONTENT</text>
<rect x="848" y="268" width="144" height="146" rx="12" fill="#ffffff" stroke="#e6e8eb"/>
<svg x="879" y="280" width="92" height="92" viewBox="0 0 64 64" fill="none" stroke="currentColor" stroke-width="3" stroke-linecap="round" stroke-linejoin="round" focusable="false" role="img" xmlns="http://www.w3.org/2000/svg" color="#bf5b05"><title>Safety</title><rect x="4" y="4" width="56" height="56" rx="9" fill="currentColor" fill-opacity="0.1" stroke="none"></rect><svg xmlns="http://www.w3.org/2000/svg" width="31" height="31" viewBox="0 0 24 24" fill="none" stroke="currentColor" stroke-width="3" stroke-linecap="round" stroke-linejoin="round" class="lucide lucide-shield-check" aria-hidden="true" x="17" y="16"><path d="M20 13c0 5-3.5 7.5-7.66 8.95a1 1 0 0 1-.67-.01C7.5 20.5 4 18 4 13V6a1 1 0 0 1 1-1c2 0 4.5-1.2 6.24-2.72a1.17 1.17 0 0 1 1.52 0C14.51 3.81 17 5 19 5a1 1 0 0 1 1 1z"></path><path d="m9 12 2 2 4-4"></path></svg></svg>
<text x="920" y="388" fill="#191919" font-family="Arial, Helvetica, sans-serif" font-size="12" font-weight="800" text-anchor="middle">Safety</text>
<text x="920" y="407" fill="#bf5b05" font-family="Arial, Helvetica, sans-serif" font-size="9" font-weight="800" text-anchor="middle" letter-spacing="1.1">CONTENT</text>
<rect x="38" y="430" width="144" height="146" rx="12" fill="#ffffff" stroke="#e6e8eb"/>
<svg x="69" y="442" width="92" height="92" viewBox="0 0 64 64" fill="none" stroke="currentColor" stroke-width="3" stroke-linecap="round" stroke-linejoin="round" focusable="false" role="img" xmlns="http://www.w3.org/2000/svg" color="#bf5b05"><title>Map Point</title><rect x="4" y="4" width="56" height="56" rx="9" fill="currentColor" fill-opacity="0.1" stroke="none"></rect><svg xmlns="http://www.w3.org/2000/svg" width="30" height="30" viewBox="0 0 24 24" fill="none" stroke="currentColor" stroke-width="3" stroke-linecap="round" stroke-linejoin="round" class="lucide lucide-map-pin" aria-hidden="true" x="18" y="15"><path d="M20 10c0 4.993-5.539 10.193-7.399 11.799a1 1 0 0 1-1.202 0C9.539 20.193 4 14.993 4 10a8 8 0 0 1 16 0"></path><circle cx="12" cy="10" r="3"></circle></svg><path d="M23 48h18" stroke-width="2.6"></path></svg>
<text x="110" y="550" fill="#191919" font-family="Arial, Helvetica, sans-serif" font-size="12" font-weight="800" text-anchor="middle">Map Point</text>
<text x="110" y="569" fill="#bf5b05" font-family="Arial, Helvetica, sans-serif" font-size="9" font-weight="800" text-anchor="middle" letter-spacing="1.1">CONTENT</text>
<rect x="200" y="430" width="144" height="146" rx="12" fill="#ffffff" stroke="#e6e8eb"/>
<svg x="231" y="442" width="92" height="92" viewBox="0 0 64 64" fill="none" stroke="currentColor" stroke-width="3" stroke-linecap="round" stroke-linejoin="round" focusable="false" role="img" xmlns="http://www.w3.org/2000/svg" color="#bf5b05"><title>Customer Quote</title><rect x="4" y="4" width="56" height="56" rx="9" fill="currentColor" fill-opacity="0.1" stroke="none"></rect><svg xmlns="http://www.w3.org/2000/svg" width="32" height="32" viewBox="0 0 24 24" fill="none" stroke="currentColor" stroke-width="3" stroke-linecap="round" stroke-linejoin="round" class="lucide lucide-message-square-quote" aria-hidden="true" x="16" y="19"><path d="M14 14a2 2 0 0 0 2-2V8h-2"></path><path d="M22 17a2 2 0 0 1-2 2H6.828a2 2 0 0 0-1.414.586l-2.202 2.202A.71.71 0 0 1 2 21.286V5a2 2 0 0 1 2-2h16a2 2 0 0 1 2 2z"></path><path d="M8 14a2 2 0 0 0 2-2V8H8"></path></svg></svg>
<text x="272" y="550" fill="#191919" font-family="Arial, Helvetica, sans-serif" font-size="12" font-weight="800" text-anchor="middle">Customer Quote</text>
<text x="272" y="569" fill="#bf5b05" font-family="Arial, Helvetica, sans-serif" font-size="9" font-weight="800" text-anchor="middle" letter-spacing="1.1">CONTENT</text>
<rect x="362" y="430" width="144" height="146" rx="12" fill="#ffffff" stroke="#e6e8eb"/>
<svg x="393" y="442" width="92" height="92" viewBox="0 0 64 64" fill="none" stroke="currentColor" stroke-width="3" stroke-linecap="round" stroke-linejoin="round" focusable="false" role="img" xmlns="http://www.w3.org/2000/svg" color="#bf5b05"><title>Mail</title><rect x="4" y="4" width="56" height="56" rx="9" fill="currentColor" fill-opacity="0.1" stroke="none"></rect><svg xmlns="http://www.w3.org/2000/svg" width="32" height="32" viewBox="0 0 24 24" fill="none" stroke="currentColor" stroke-width="3" stroke-linecap="round" stroke-linejoin="round" class="lucide lucide-mail" aria-hidden="true" x="16" y="20"><path d="m22 7-8.991 5.727a2 2 0 0 1-2.009 0L2 7"></path><rect x="2" y="4" width="20" height="16" rx="2"></rect></svg></svg>
<text x="434" y="550" fill="#191919" font-family="Arial, Helvetica, sans-serif" font-size="12" font-weight="800" text-anchor="middle">Mail</text>
<text x="434" y="569" fill="#bf5b05" font-family="Arial, Helvetica, sans-serif" font-size="9" font-weight="800" text-anchor="middle" letter-spacing="1.1">CONTACT</text>
<rect x="524" y="430" width="144" height="146" rx="12" fill="#ffffff" stroke="#e6e8eb"/>
<svg x="555" y="442" width="92" height="92" viewBox="0 0 64 64" fill="none" stroke="currentColor" stroke-width="3" stroke-linecap="round" stroke-linejoin="round" focusable="false" role="img" xmlns="http://www.w3.org/2000/svg" color="#bf5b05"><title>WhatsApp</title><rect x="4" y="4" width="56" height="56" rx="9" fill="currentColor" fill-opacity="0.1" stroke="none"></rect><path d="M20 47l2-6A15 15 0 1 1 29 46l-9 1z"></path><path d="M27.8 25.8c-1.1.3-2 1.5-2 2.8 0 5.3 4.3 9.6 9.6 9.6 1.3 0 2.5-.9 2.8-2l-2.5-2.1-2 1.2a9.6 9.6 0 0 1-5-5l1.2-2-2.1-2.5z" stroke-width="2.55"></path></svg>
<text x="596" y="550" fill="#191919" font-family="Arial, Helvetica, sans-serif" font-size="12" font-weight="800" text-anchor="middle">WhatsApp</text>
<text x="596" y="569" fill="#bf5b05" font-family="Arial, Helvetica, sans-serif" font-size="9" font-weight="800" text-anchor="middle" letter-spacing="1.1">CONTACT</text>
<rect x="686" y="430" width="144" height="146" rx="12" fill="#ffffff" stroke="#e6e8eb"/>
<svg x="717" y="442" width="92" height="92" viewBox="0 0 64 64" fill="none" stroke="currentColor" stroke-width="3" stroke-linecap="round" stroke-linejoin="round" focusable="false" role="img" xmlns="http://www.w3.org/2000/svg" color="#bf5b05"><title>Call</title><rect x="4" y="4" width="56" height="56" rx="9" fill="currentColor" fill-opacity="0.1" stroke="none"></rect><svg xmlns="http://www.w3.org/2000/svg" width="30" height="30" viewBox="0 0 24 24" fill="none" stroke="currentColor" stroke-width="3" stroke-linecap="round" stroke-linejoin="round" class="lucide lucide-phone-call" aria-hidden="true" x="17" y="17"><path d="M13 2a9 9 0 0 1 9 9"></path><path d="M13 6a5 5 0 0 1 5 5"></path><path d="M13.832 16.568a1 1 0 0 0 1.213-.303l.355-.465A2 2 0 0 1 17 15h3a2 2 0 0 1 2 2v3a2 2 0 0 1-2 2A18 18 0 0 1 2 4a2 2 0 0 1 2-2h3a2 2 0 0 1 2 2v3a2 2 0 0 1-.8 1.6l-.468.351a1 1 0 0 0-.292 1.233 14 14 0 0 0 6.392 6.384"></path></svg></svg>
<text x="758" y="550" fill="#191919" font-family="Arial, Helvetica, sans-serif" font-size="12" font-weight="800" text-anchor="middle">Call</text>
<text x="758" y="569" fill="#bf5b05" font-family="Arial, Helvetica, sans-serif" font-size="9" font-weight="800" text-anchor="middle" letter-spacing="1.1">CONTACT</text>
<rect x="848" y="430" width="144" height="146" rx="12" fill="#ffffff" stroke="#e6e8eb"/>
<svg x="879" y="442" width="92" height="92" viewBox="0 0 64 64" fill="none" stroke="currentColor" stroke-width="3" stroke-linecap="round" stroke-linejoin="round" focusable="false" role="img" xmlns="http://www.w3.org/2000/svg" color="#bf5b05"><title>LinkedIn</title><rect x="4" y="4" width="56" height="56" rx="9" fill="currentColor" fill-opacity="0.1" stroke="none"></rect><rect x="18.5" y="18.5" width="27" height="27" rx="5.5"></rect><g fill="currentColor" stroke="none"><circle cx="25.6" cy="27" r="2.1"></circle><rect x="23.6" y="31.2" width="4.1" height="10.7" rx="1.1"></rect><path d="M31.4 31.2h3.9v1.5c.9-1.2 2.4-1.9 4.2-1.9 3.3 0 5.2 2.2 5.2 6.2v4.9h-4.1v-4.5c0-2.1-.8-3.2-2.4-3.2-1.5 0-2.7 1.1-2.7 3.2v4.5h-4.1V31.2z"></path></g></svg>
<text x="920" y="550" fill="#191919" font-family="Arial, Helvetica, sans-serif" font-size="12" font-weight="800" text-anchor="middle">LinkedIn</text>
<text x="920" y="569" fill="#bf5b05" font-family="Arial, Helvetica, sans-serif" font-size="9" font-weight="800" text-anchor="middle" letter-spacing="1.1">CONTACT</text>
</svg>
