<?xml version="1.0" encoding="UTF-8"?>
<svg width="128" height="128" viewBox="0 0 64 64" fill="none" stroke="currentColor" stroke-width="3" stroke-linecap="round" stroke-linejoin="round" focusable="false" role="img" xmlns="http://www.w3.org/2000/svg" color="#bf5b05"><title>Safety</title><rect x="4" y="4" width="56" height="56" rx="9" fill="currentColor" fill-opacity="0.1" stroke="none"></rect><svg xmlns="http://www.w3.org/2000/svg" width="31" height="31" viewBox="0 0 24 24" fill="none" stroke="currentColor" stroke-width="3" stroke-linecap="round" stroke-linejoin="round" class="lucide lucide-shield-check" aria-hidden="true" x="17" y="16"><path d="M20 13c0 5-3.5 7.5-7.66 8.95a1 1 0 0 1-.67-.01C7.5 20.5 4 18 4 13V6a1 1 0 0 1 1-1c2 0 4.5-1.2 6.24-2.72a1.17 1.17 0 0 1 1.52 0C14.51 3.81 17 5 19 5a1 1 0 0 1 1 1z"></path><path d="m9 12 2 2 4-4"></path></svg></svg>
