<?xml version="1.0" encoding="UTF-8"?>
<svg width="128" height="128" viewBox="0 0 64 64" fill="none" stroke="currentColor" stroke-width="3" stroke-linecap="round" stroke-linejoin="round" focusable="false" role="img" xmlns="http://www.w3.org/2000/svg" color="#bf5b05"><title>Scrap Import Export</title><rect x="4" y="4" width="56" height="56" rx="9" fill="currentColor" fill-opacity="0.1" stroke="none"></rect><svg xmlns="http://www.w3.org/2000/svg" width="30" height="30" viewBox="0 0 24 24" fill="none" stroke="currentColor" stroke-width="3" stroke-linecap="round" stroke-linejoin="round" class="lucide lucide-ship" aria-hidden="true" x="17" y="22"><path d="M12 10.189V14"></path><path d="M12 2v3"></path><path d="M19 13V7a2 2 0 0 0-2-2H7a2 2 0 0 0-2 2v6"></path><path d="M19.38 20A11.6 11.6 0 0 0 21 14l-8.188-3.639a2 2 0 0 0-1.624 0L3 14a11.6 11.6 0 0 0 2.81 7.76"></path><path d="M2 21c.6.5 1.2 1 2.5 1 2.5 0 2.5-2 5-2 1.3 0 1.9.5 2.5 1s1.2 1 2.5 1c2.5 0 2.5-2 5-2 1.3 0 1.9.5 2.5 1"></path></svg><path d="M19 45c2.5 1.4 5 1.4 7.5 0s5-1.4 7.5 0 5 1.4 7.5 0" stroke-width="2.6"></path><svg xmlns="http://www.w3.org/2000/svg" width="11" height="11" viewBox="0 0 24 24" fill="none" stroke="currentColor" stroke-width="3.1" stroke-linecap="round" stroke-linejoin="round" class="lucide lucide-arrow-left-right" aria-hidden="true" x="39" y="17"><path d="M8 3 4 7l4 4"></path><path d="M4 7h16"></path><path d="m16 21 4-4-4-4"></path><path d="M20 17H4"></path></svg></svg>
